<svg xmlns="http://www.w3.org/2000/svg" viewBox="280.828 276.068 280.828 276.068" xml:space="preserve" width="280.828" height="276.068"><path fill="#1d3f60" d="M475.389 407.779c-11.913 20.985 -19.353 43.181 -24.247 66.407 -4.775 22.661 -6.606 45.666 -9.156 68.598 -0.122 1.1 -0.108 2.223 -0.315 3.308 -0.25 1.329 -1.016 2.432 -2.411 2.631 -1.556 0.22 -2.256 -1.012 -2.652 -2.24 -0.385 -1.194 -0.684 -2.466 -0.722 -3.713 -0.56 -18.709 -2.941 -37.269 -6.176 -55.624 -4.646 -26.369 -11.48 -52.215 -24.713 -75.855 -5.899 -10.539 -12.991 -20.266 -20.877 -29.416 -1.192 -1.383 -3.083 -2.778 -1.589 -4.9 1.506 -2.141 3.762 -2.088 6.014 -1.274 8.834 3.194 16.855 8.03 25.025 12.545 13.332 7.368 27.172 9.631 41.463 3.506 8.787 -3.765 16.062 -10.066 23.554 -15.934 8.608 -6.742 17.405 -13.239 27.22 -18.192 0.707 -0.357 1.415 -0.726 2.152 -1.008 2.499 -0.953 5.397 -2.575 7.319 0.308 1.994 2.988 -1.169 4.578 -2.932 6.081 -14.875 12.677 -26.912 27.677 -36.96 44.773"/><path fill="#00a580" d="M491.14 406.453c0.926 -1.117 1.597 -2.011 2.395 -2.774 1.012 -0.971 2.057 -2.21 3.686 -1.434 1.466 0.7 1.74 2.146 1.79 3.631 0.143 4.271 -0.004 8.566 1.34 12.721 4.884 15.095 16.235 21.308 31.094 23.157 7.351 0.915 14.753 1.824 21.909 3.891 1.863 0.538 4.47 0.903 4.084 3.735 -0.305 2.239 -2.367 2.696 -4.334 2.991 -41.23 6.194 -70.208 28.595 -87.637 66.268 -0.266 0.575 -0.49 1.174 -0.806 1.722 -0.996 1.732 -1.667 4.267 -4.293 3.567 -2.386 -0.638 -1.771 -3.111 -1.803 -4.908 -0.268 -14.936 1.643 -29.591 4.479 -44.281 4.757 -24.632 13.805 -47.302 28.095 -68.285m-102.652 1.933c17.433 25.983 25.781 54.885 30.334 85.052 1.273 8.428 1.278 17.05 1.778 25.589 0.121 2.068 0.089 4.528 -2.264 5.274 -2.821 0.895 -3.162 -1.81 -4.035 -3.585 -8.45 -17.19 -18.133 -33.412 -33.701 -45.38 -13.57 -10.433 -28.677 -17.376 -45.342 -20.959 -3.078 -0.663 -5.955 -2.087 -9.239 -2.074 -2.241 0.01 -4.946 -0.828 -4.955 -3.422 -0.012 -2.685 2.856 -3.069 5.005 -3.447 9.345 -1.645 18.742 -3.008 28.057 -4.803 15.109 -2.911 25.283 -15.364 25.546 -30.594 0.045 -2.642 -1.637 -6.599 1.714 -7.617 2.9 -0.881 4.466 2.88 6.372 4.9 0.216 0.229 0.377 0.51 0.733 1.066"/><path fill="#1d3f60" d="M453.262 379.037c-13.614 11.313 -30.162 3.336 -34.406 -8.447 -3.031 -8.418 -1.387 -16.275 4.808 -22.803 5.974 -6.295 13.534 -8.299 21.716 -5.722 8.116 2.559 13.108 8.346 14.769 16.938 1.532 7.937 -1.479 14.186 -6.887 20.034"/><path fill="#00a580" d="M543.855 423.849c-8.544 9.512 -28.061 8.272 -32.442 -7.18 -2.57 -9.066 2.146 -19.673 11.239 -23.422 9.167 -3.78 19.558 0.133 23.837 8.94 3.72 7.654 2.644 14.74 -2.635 21.661m-211.088 -2.84c-8.767 -14.86 4.404 -30.008 16.965 -29.111 9.869 0.704 18.138 9.488 17.906 19.797 -0.236 10.493 -7.745 17.744 -18.195 17.963 -7.098 0.15 -12.653 -2.294 -16.678 -8.65"/></svg>