<svg version="1.1" id="Layer_1" xmlns="http://www.w3.org/2000/svg" xmlns:xlink="http://www.w3.org/1999/xlink" x="0px" y="0px"
	 width="100%" viewBox="0 0 912 752" enable-background="new 0 0 912 752" xml:space="preserve">
<path fill="#1d3f60" opacity="1.000000" stroke="none" 
	d="
M663.066345,475.041199 
	C667.318176,474.613953 671.135803,474.322266 674.912109,473.755432 
	C680.206482,472.960785 683.793579,475.280579 686.691040,479.458984 
	C695.608093,492.318024 704.693909,505.060455 713.563843,517.951660 
	C723.563904,532.485413 733.401428,547.131104 743.307556,561.729553 
	C744.429688,563.383240 745.545166,565.041504 746.651367,566.705933 
	C749.391663,570.829224 749.978516,575.020508 746.895447,579.236877 
	C743.946838,583.269409 739.901855,584.785339 735.048767,583.937866 
	C727.357422,582.594788 719.731506,580.803955 712.002380,579.763184 
	C690.532471,576.872192 669.029297,575.390259 647.290039,576.802246 
	C635.145203,577.591064 623.016479,578.546204 611.090149,580.581787 
	C594.044495,583.491150 577.321716,587.993408 561.183655,594.434631 
	C535.757507,604.582886 512.590515,618.076111 492.367920,636.921021 
	C473.354980,654.638672 446.451111,653.072205 428.035156,634.808105 
	C410.483032,617.400696 389.202209,605.788940 366.710724,596.187866 
	C350.118866,589.105103 332.885590,583.908875 315.135712,580.924255 
	C292.629303,577.139893 269.978516,575.107727 247.039719,576.731262 
	C234.089325,577.647827 221.111099,577.969360 208.293793,580.255005 
	C202.245682,581.333496 196.198669,582.418579 190.155548,583.524658 
	C185.994812,584.286194 181.887100,584.916565 178.310181,581.727722 
	C173.750671,577.662842 173.037338,572.552490 176.792358,566.411682 
	C184.868774,553.203857 193.791656,540.553284 202.692505,527.893433 
	C214.184311,511.548309 225.787903,495.280090 237.106384,478.815857 
	C240.106079,474.452393 243.816422,473.425781 248.680481,473.909943 
	C270.889465,476.120697 292.725586,479.797668 314.207153,486.299957 
	C337.671143,493.402252 359.655701,503.394196 380.307343,516.339966 
	C412.850403,536.740112 439.744720,562.846191 459.075165,596.325806 
	C459.582092,597.203857 460.029999,598.090759 461.821716,598.536438 
	C507.933899,524.003967 577.022522,486.045654 663.066345,475.041199 
M315.695557,526.695801 
	C348.922028,535.090515 380.184723,548.070435 409.159851,567.778442 
	C408.962097,565.138062 407.637604,564.513245 406.732971,563.627014 
	C391.762054,548.959900 374.841400,536.989807 356.514984,526.863037 
	C327.444519,510.799377 296.210632,501.885254 263.517181,496.889954 
	C254.058731,495.444763 248.143845,497.526917 244.131302,505.901062 
	C242.403793,509.506317 238.517212,511.959961 238.112701,516.297668 
	C240.009521,517.388611 241.701065,516.922119 243.340088,516.984741 
	C267.491241,517.907104 291.430969,520.411560 315.695557,526.695801 
M630.277222,502.765228 
	C629.002136,503.152802 627.744385,503.614655 626.449463,503.917206 
	C588.600769,512.759216 555.189636,530.426147 525.201782,554.871826 
	C522.626221,556.971436 520.279541,559.359924 517.898193,561.687561 
	C515.542603,563.990112 513.277710,566.385498 510.973083,568.740173 
	C563.709045,532.780029 622.684753,518.494629 686.614929,516.670227 
	C682.278564,510.494141 678.545898,505.807312 675.535706,500.695038 
	C673.046387,496.467316 669.798523,495.911499 665.449890,496.464264 
	C653.887146,497.934021 642.427185,499.914673 630.277222,502.765228 
M353.063019,561.440369 
	C351.194397,560.736023 349.293365,560.106689 347.462311,559.315369 
	C333.356323,553.219849 318.610779,548.902222 303.706085,545.635742 
	C280.081757,540.458313 256.003418,538.744263 231.792984,539.186462 
	C221.279907,539.378479 213.510361,545.736694 211.232712,556.518921 
	C272.825104,549.005188 332.529510,554.781006 389.390198,581.285950 
	C377.948212,573.919556 366.105652,567.375427 353.063019,561.440369 
M601.733154,558.992798 
	C638.350647,552.464478 675.141663,551.805237 713.453979,556.878235 
	C709.744568,551.339417 706.965210,547.241394 704.242432,543.106079 
	C702.325317,540.194153 699.740601,539.177612 696.220398,539.167908 
	C684.232666,539.134888 672.264771,539.185364 660.304443,540.236816 
	C646.552002,541.445862 632.746155,542.671753 619.334045,545.803284 
	C592.373230,552.098145 566.250732,560.830261 542.484009,575.560730 
	C538.482178,578.041016 534.056030,579.837097 530.514771,583.130005 
	C552.733826,571.402588 576.686462,564.905457 601.733154,558.992798 
z"/>
<path fill="#1d3f60" opacity="1.000000" stroke="none" 
	d="
M509.334595,65.627075 
	C522.726501,67.703201 535.598816,70.221924 548.147827,74.021431 
	C568.891663,80.302101 588.967346,88.251534 607.993958,98.767426 
	C651.417419,122.767250 687.640747,154.784393 716.065735,195.504684 
	C734.281189,221.599319 748.005676,249.831421 757.732788,280.205627 
	C769.297119,316.316986 773.278931,353.256561 772.034912,390.909149 
	C771.302612,413.075531 767.655640,434.909180 761.910767,456.268677 
	C755.770203,479.098846 746.947876,500.990570 735.784729,521.884338 
	C733.669922,525.842407 732.380371,526.030090 729.783752,522.582031 
	C726.176697,517.792358 722.776733,512.846802 719.177917,508.050690 
	C717.632996,505.991730 717.917908,504.162079 719.012146,502.044647 
	C728.838074,483.031097 735.630005,462.842163 740.806580,442.191650 
	C744.763306,426.407715 746.942505,410.272736 748.111450,393.935913 
	C749.104248,380.059692 748.606812,366.296509 747.681763,352.549011 
	C746.364197,332.966461 742.530823,313.804779 737.231995,294.829803 
	C730.419006,270.432648 720.507629,247.486603 707.514893,225.876999 
	C689.501343,195.916763 666.900024,169.909988 639.481079,148.076706 
	C615.572021,129.038284 589.490173,113.926651 560.840027,103.312195 
	C540.656433,95.834427 519.939697,90.627312 498.507446,87.937866 
	C476.222626,85.141426 453.881897,84.930199 431.713104,87.196915 
	C374.189575,93.078545 323.168030,115.008720 278.721893,152.046661 
	C238.660828,185.430450 209.831894,226.866104 191.793976,275.637665 
	C182.003708,302.108948 176.868317,329.631317 174.949402,357.926208 
	C173.184738,383.946533 175.616623,409.504120 180.618561,434.822693 
	C185.042709,457.216705 192.827209,478.685638 203.029633,499.149170 
	C205.320923,503.744934 205.946320,507.120514 202.034363,511.091736 
	C199.029526,514.142029 196.865463,518.015503 194.290619,521.495605 
	C190.987106,525.960571 189.587067,525.940979 187.039276,521.033569 
	C180.594009,508.619080 175.077499,495.776215 170.164108,482.692108 
	C162.782501,463.035248 157.458176,442.793610 154.488129,422.014404 
	C151.613739,401.904297 150.218857,381.725159 151.495560,361.328278 
	C152.702835,342.040375 155.072510,323.008575 159.283478,304.149597 
	C166.417023,272.201843 178.523087,242.277237 195.354080,214.262711 
	C229.300583,157.760101 276.513519,115.957535 336.247314,88.393417 
	C357.722351,78.483780 380.375946,72.170677 403.609650,67.324417 
	C431.677582,61.469803 459.889740,62.581818 488.137024,62.882687 
	C495.067261,62.956505 501.980438,64.631996 509.334595,65.627075 
z"/>
<path fill="#00a580" opacity="1.000000" stroke="none" 
	d="
M446.084991,163.815948 
	C455.867920,179.988358 468.001923,185.114471 485.993347,180.623352 
	C490.565033,179.482147 494.432556,176.795166 497.655426,173.255066 
	C499.049896,171.723312 500.030640,169.552994 502.559021,169.461563 
	C504.660522,171.046661 503.559052,172.728134 502.844055,174.389542 
	C497.836639,186.025269 489.657257,194.350540 477.350159,197.967957 
	C473.243225,199.175110 472.808014,200.935822 474.601288,204.417160 
	C479.820740,214.549988 487.698975,222.388885 496.145660,229.737991 
	C511.824890,243.379852 529.864380,253.479691 547.698608,263.872986 
	C572.318420,278.220673 596.957336,292.549530 617.439575,312.774323 
	C636.831665,331.922729 649.017517,355.196960 654.786255,381.593109 
	C659.320190,402.339050 658.209412,423.181213 652.741760,443.808746 
	C651.162903,449.765289 649.170044,455.554779 647.409607,461.433502 
	C646.580505,464.202484 645.035339,465.621277 642.273010,466.114105 
	C636.736450,467.101898 631.031250,467.191345 625.699890,469.315216 
	C624.324951,469.862976 622.709045,470.179199 621.566589,468.716644 
	C620.562561,467.431274 621.378174,466.132446 621.854187,464.941284 
	C625.552063,455.687408 629.232910,446.315308 631.109619,436.595612 
	C635.379150,414.482666 635.903564,392.415009 627.914856,370.720917 
	C618.389648,344.854126 600.926025,325.599365 578.924805,309.807861 
	C563.873840,299.004883 547.862976,289.803589 531.870605,280.533142 
	C511.709351,268.846008 491.679810,256.937897 474.200195,239.884506 
	C472.743561,245.789490 471.197968,250.933868 469.161224,255.912842 
	C461.824493,273.848297 449.083801,287.337006 433.249939,297.734650 
	C416.005280,309.058746 398.038513,319.277100 380.524048,330.198059 
	C361.028381,342.354401 342.794739,355.932404 331.129242,376.489716 
	C325.678558,386.095062 321.500305,396.168701 319.115143,406.999115 
	C318.552734,409.552979 318.813324,413.886230 315.441772,413.812256 
	C311.439514,413.724396 312.397614,409.182953 312.098206,406.547241 
	C308.516510,375.013062 320.266663,349.645508 343.747467,329.140991 
	C359.027924,315.797394 376.649292,305.969452 393.995117,295.712097 
	C407.455994,287.752136 421.180389,280.132843 432.654083,269.263641 
	C441.893921,260.510620 448.324829,250.069214 451.671692,237.753754 
	C450.052856,236.937393 449.596710,238.177078 449.039551,238.791260 
	C433.332611,256.105957 413.456146,267.685547 393.514160,279.156921 
	C373.305237,290.781860 352.902100,302.072418 334.659393,316.791626 
	C313.581329,333.798523 298.257019,354.527039 291.958405,381.299286 
	C288.692963,395.179016 287.965546,409.067322 289.694458,423.304474 
	C291.419556,437.510345 295.708374,450.847839 300.738098,464.071899 
	C301.304199,465.560333 302.578918,467.137543 301.355164,468.759247 
	C299.902710,470.684021 297.827240,469.689575 296.290070,469.061218 
	C291.276245,467.011749 285.878052,467.016693 280.715088,465.809723 
	C278.014282,465.178314 276.381073,463.927246 275.408630,461.243958 
	C267.097473,438.310364 264.093353,414.612183 267.092926,390.525360 
	C270.581787,362.509521 282.571777,338.066772 301.663727,317.233704 
	C318.742371,298.597534 339.699066,285.064392 361.165558,272.155151 
	C382.401123,259.384827 404.546417,248.020950 423.788452,232.111923 
	C433.489441,224.091263 442.092682,215.152206 448.343628,204.121994 
	C450.520477,200.280838 450.841400,197.877731 445.763092,195.342758 
	C425.799896,185.377533 415.971832,162.545395 423.183350,141.735886 
	C428.421692,126.620132 439.481445,116.950050 455.505737,113.597542 
	C457.785370,113.120613 460.037994,112.445862 462.340027,112.167259 
	C464.094238,111.954948 466.499969,111.614746 467.104797,113.757011 
	C467.823669,116.303093 465.168762,116.447517 463.591248,117.039581 
	C455.733551,119.988731 449.981781,125.244858 446.237183,132.701157 
	C441.118469,142.893753 441.570190,153.173294 446.084991,163.815948 
z"/>
<path fill="#00a580" opacity="1.000000" stroke="none" 
	d="
M361.538940,647.422180 
	C381.371582,655.048706 401.490417,660.264771 422.067871,663.324158 
	C445.688568,666.835938 469.372070,667.012878 493.218781,664.199097 
	C525.459106,660.394775 555.966064,651.404236 585.010803,637.081482 
	C609.836487,624.839294 632.264282,609.145630 652.508301,590.320312 
	C655.127136,587.884949 657.797363,586.647827 661.413818,586.772522 
	C668.239014,587.007751 675.076416,586.868774 681.908020,586.949341 
	C683.528870,586.968445 685.493164,586.726135 686.255127,588.622253 
	C686.938721,590.323242 685.406433,591.323669 684.397888,592.394714 
	C654.177368,624.489014 618.758667,649.100403 578.180115,666.331299 
	C564.058899,672.327576 549.592590,677.323181 534.712280,680.951599 
	C505.636627,688.041321 476.206299,691.494324 446.182831,689.518677 
	C431.535919,688.554871 416.978546,687.057007 402.650421,684.092896 
	C369.840637,677.305298 338.879974,665.530701 309.837616,648.702881 
	C283.979218,633.719910 261.064819,615.076294 240.281403,593.714172 
	C238.972595,592.368896 236.415604,591.255676 237.366699,588.973999 
	C238.327637,586.668640 241.033829,587.038696 243.126816,586.987732 
	C249.956070,586.821411 256.792053,586.900757 263.619019,586.684387 
	C266.831970,586.582581 268.901367,588.342529 270.978516,590.307495 
	C291.702667,609.912109 314.877899,625.966187 340.657379,638.199890 
	C347.412933,641.405701 354.331787,644.267273 361.538940,647.422180 
z"/>
<path fill="#1d3f60" opacity="1.000000" stroke="none" 
	d="
M499.378967,428.357239 
	C486.863586,450.401093 479.049133,473.716980 473.908691,498.114685 
	C468.893066,521.919922 466.970276,546.085876 464.291290,570.174438 
	C464.162628,571.331299 464.177094,572.511169 463.961945,573.649536 
	C463.698029,575.046082 462.893982,576.205017 461.429352,576.412537 
	C459.794922,576.643982 459.058197,575.349609 458.643127,574.060303 
	C458.239441,572.806213 457.924103,571.469971 457.884918,570.160339 
	C457.297241,550.507446 454.794250,531.010559 451.397156,511.728638 
	C446.517059,484.029449 439.336639,456.879761 425.436890,432.045837 
	C419.240295,420.974640 411.789764,410.757477 403.506744,401.144989 
	C402.254669,399.691895 400.268036,398.226227 401.836151,395.997223 
	C403.418549,393.747833 405.789062,393.803284 408.154694,394.658600 
	C417.434967,398.013947 425.860870,403.094177 434.442230,407.836700 
	C448.446594,415.576355 462.985016,417.954254 477.997986,411.520416 
	C487.227722,407.564941 494.871246,400.945831 502.741394,394.782227 
	C511.784363,387.700104 521.024414,380.873627 531.335327,375.671326 
	C532.078186,375.296539 532.820984,374.909576 533.596436,374.613495 
	C536.222290,373.610901 539.264526,371.907928 541.284363,374.936127 
	C543.377686,378.074615 540.055969,379.744934 538.203125,381.324005 
	C522.577759,394.640991 509.934509,410.397675 499.378967,428.357239 
z"/>
<path fill="#00a580" opacity="1.000000" stroke="none" 
	d="
M515.925659,426.963745 
	C516.899353,425.791321 517.604492,424.851288 518.441528,424.048798 
	C519.505127,423.029114 520.602417,421.727966 522.312988,422.543304 
	C523.853943,423.277832 524.141418,424.798187 524.193604,426.357544 
	C524.343872,430.845062 524.188599,435.355927 525.601013,439.720734 
	C530.732239,455.578400 542.655090,462.104462 558.263672,464.046997 
	C565.985901,465.008057 573.761047,465.963470 581.279053,468.133789 
	C583.237122,468.699036 585.974548,469.082977 585.569397,472.057343 
	C585.249084,474.409241 583.082153,474.888763 581.015869,475.199097 
	C537.705811,481.704681 507.264832,505.236603 488.957397,544.810791 
	C488.677765,545.415222 488.442078,546.044861 488.111420,546.619873 
	C487.065247,548.439392 486.359528,551.103210 483.602478,550.366638 
	C481.095917,549.697021 481.742340,547.098511 481.708344,545.211365 
	C481.425507,529.520996 483.433197,514.126648 486.413361,498.694794 
	C491.410248,472.819916 500.915222,449.006073 515.925659,426.963745 
z"/>
<path fill="#00a580" opacity="1.000000" stroke="none" 
	d="
M408.094482,428.994751 
	C426.406342,456.289124 435.175964,486.649719 439.959137,518.338684 
	C441.295502,527.192139 441.301025,536.250244 441.825653,545.219849 
	C441.952667,547.391052 441.918640,549.975403 439.448395,550.758728 
	C436.484589,551.698547 436.126221,548.856506 435.210266,546.993164 
	C426.333527,528.934570 416.161621,511.895203 399.808167,499.322662 
	C385.553558,488.363647 369.684174,481.070251 352.177948,477.305786 
	C348.943970,476.610352 345.921631,475.113190 342.471771,475.127350 
	C340.118408,475.137024 337.276855,474.256561 337.265594,471.531738 
	C337.253906,468.712341 340.266235,468.308044 342.523315,467.910858 
	C352.339783,466.183441 362.211151,464.750519 371.996094,462.865692 
	C387.867401,459.808594 398.554840,446.726013 398.831146,430.727570 
	C398.879059,427.951935 397.112274,423.795532 400.630890,422.726715 
	C403.677155,421.801361 405.322815,425.752411 407.325409,427.874054 
	C407.552185,428.114380 407.721039,428.409485 408.094482,428.994751 
z"/>
<path fill="#00a580" opacity="1.000000" stroke="none" 
	d="
M597.368347,386.643127 
	C587.281433,364.256317 570.883789,348.037109 550.776672,335.352386 
	C532.475281,323.806793 513.791870,312.865601 495.526031,301.265564 
	C486.551971,295.566437 477.837067,289.373596 470.860229,281.102570 
	C468.657135,278.490814 468.454620,276.375366 470.655853,273.654358 
	C472.951294,270.816833 474.915192,267.694458 476.856750,264.591980 
	C478.768311,261.537445 480.840851,261.457550 483.320862,263.815979 
	C503.111359,282.636017 527.658020,294.320740 550.464661,308.624573 
	C568.175598,319.732574 585.188599,331.717010 597.141174,349.421295 
	C609.661194,367.966156 613.380371,388.442322 610.249451,410.369385 
	C610.009766,412.047913 609.657593,414.000336 607.648987,414.145813 
	C605.247314,414.319763 604.999207,412.221436 604.555054,410.382111 
	C602.641846,402.458252 600.582031,394.573181 597.368347,386.643127 
z"/>
<path fill="#1d3f60" opacity="1.000000" stroke="none" 
	d="
M476.135803,398.165405 
	C461.834595,410.049103 444.451477,401.670074 439.994110,389.291931 
	C436.809692,380.448914 438.536835,372.196320 445.043976,365.338257 
	C451.319214,358.724579 459.260864,356.619751 467.855865,359.328735 
	C476.381744,362.015930 481.626129,368.095398 483.369690,377.119598 
	C484.980499,385.456696 481.815674,392.021973 476.135803,398.165405 
z"/>
<path fill="#00a580" opacity="1.000000" stroke="none" 
	d="
M571.299072,445.238251 
	C562.323608,455.230347 541.822937,453.927429 537.221069,437.696198 
	C534.520874,428.172516 539.475830,417.029694 549.026733,413.091614 
	C558.657043,409.120728 569.571655,413.231628 574.067688,422.483246 
	C577.974609,430.522705 576.845032,437.967072 571.299072,445.238251 
z"/>
<path fill="#00a580" opacity="1.000000" stroke="none" 
	d="
M349.557861,442.254852 
	C340.348663,426.645111 354.185242,410.733368 367.379944,411.675049 
	C377.747162,412.414948 386.432953,421.642242 386.189758,432.470612 
	C385.942200,443.493286 378.053925,451.110321 367.077454,451.340912 
	C359.621094,451.497559 353.785522,448.930573 349.557861,442.254852 
z"/>
<path fill="#1d3f60" opacity="1.000000" stroke="none" 
	d="
M497.538239,144.322693 
	C496.316223,145.253326 495.365662,145.928238 494.436035,146.630920 
	C487.830994,151.623413 487.694366,152.092178 490.517487,159.884491 
	C491.427612,162.396637 491.498962,163.089630 491.188049,166.781509 
	C487.145508,167.430984 484.884277,164.239777 482.330231,162.235748 
	C478.994507,159.618347 476.455078,159.473587 473.248016,162.401215 
	C471.011902,164.442490 468.634857,166.722595 464.982605,167.109604 
	C463.361023,163.409317 464.997009,160.021118 466.326782,157.144302 
	C468.347443,152.772736 467.007996,150.336288 463.369415,148.114304 
	C461.534637,146.993881 459.913452,145.512375 458.247742,144.131393 
	C457.484894,143.498962 456.727081,142.742889 457.022797,141.591492 
	C457.393311,140.148956 458.629730,140.059830 459.797943,140.008667 
	C461.794403,139.921234 463.817780,139.690628 465.787720,139.905792 
	C470.668579,140.438904 473.110626,138.462936 474.037048,133.560440 
	C474.577759,130.699097 474.818085,127.232552 478.239471,125.310829 
	C481.177521,128.104385 481.257019,131.951065 482.296600,135.272247 
	C483.376923,138.723557 485.236450,140.152084 488.788177,139.925476 
	C491.270935,139.767090 493.800232,139.835617 496.270752,140.126114 
	C498.910065,140.436493 499.956116,141.723694 497.538239,144.322693 
z"/>
</svg>